<svg width="38" height="37" viewBox="0 0 38 37" fill="none" xmlns="http://www.w3.org/2000/svg">
<path d="M19 0C16.5049 0 14.0342 0.490397 11.729 1.44319C9.42383 2.39598 7.32928 3.79252 5.56497 5.55305C2.00178 9.10861 0 13.931 0 18.9593C0 27.3393 5.453 34.449 12.996 36.9706C13.946 37.1223 14.25 36.5346 14.25 36.0227V32.8185C8.987 33.9561 7.866 30.278 7.866 30.278C6.992 28.0787 5.757 27.491 5.757 27.491C4.028 26.3155 5.89 26.3534 5.89 26.3534C7.79 26.4861 8.797 28.3062 8.797 28.3062C10.45 31.188 13.243 30.3349 14.326 29.8799C14.497 28.6475 14.991 27.8133 15.523 27.3393C11.305 26.8653 6.878 25.2348 6.878 18.0113C6.878 15.9069 7.6 14.2195 8.835 12.8734C8.645 12.3994 7.98 10.4276 9.025 7.86811C9.025 7.86811 10.621 7.35621 14.25 9.80196C15.751 9.38485 17.385 9.1763 19 9.1763C20.615 9.1763 22.249 9.38485 23.75 9.80196C27.379 7.35621 28.975 7.86811 28.975 7.86811C30.02 10.4276 29.355 12.3994 29.165 12.8734C30.4 14.2195 31.122 15.9069 31.122 18.0113C31.122 25.2538 26.676 26.8464 22.439 27.3204C23.123 27.9081 23.75 29.0646 23.75 30.8278V36.0227C23.75 36.5346 24.054 37.1413 25.023 36.9706C32.566 34.4301 38 27.3393 38 18.9593C38 16.4695 37.5086 14.0041 36.5537 11.7039C35.5989 9.40364 34.1993 7.31358 32.435 5.55305C30.6707 3.79252 28.5762 2.39598 26.271 1.44319C23.9658 0.490397 21.4951 0 19 0Z" fill="white"/>
</svg>
