<svg width="39" height="32" viewBox="0 0 39 32" fill="none" xmlns="http://www.w3.org/2000/svg">
<path d="M39 3.76471C37.5645 4.42353 36.0172 4.85647 34.414 5.06353C36.0545 4.06588 37.3222 2.48471 37.9187 0.583529C36.3714 1.52471 34.6563 2.18353 32.848 2.56C31.3752 0.941177 29.3059 0 26.957 0C22.576 0 18.9967 3.61412 18.9967 8.07529C18.9967 8.71529 19.0712 9.33647 19.2017 9.92C12.565 9.58118 6.65535 6.36235 2.7218 1.48706C2.03203 2.67294 1.64054 4.06588 1.64054 5.53412C1.64054 8.33882 3.03872 10.8235 5.20124 12.2353C3.87763 12.2353 2.64723 11.8588 1.56597 11.2941V11.3506C1.56597 15.2659 4.32505 18.5412 7.97897 19.2753C6.80585 19.5995 5.57427 19.6446 4.38098 19.4071C4.88732 21.0117 5.87897 22.4158 7.21652 23.422C8.55408 24.4281 10.1703 24.9858 11.838 25.0165C9.01107 27.2761 5.50697 28.4975 1.90153 28.48C1.26769 28.48 0.633843 28.4424 0 28.3671C3.54207 30.6635 7.75526 32 12.2667 32C26.957 32 35.0292 19.6894 35.0292 9.01647C35.0292 8.65882 35.0292 8.32 35.0105 7.96235C36.5765 6.83294 37.9187 5.40235 39 3.76471Z" fill="white"/>
</svg>
