<svg width="25" height="23" viewBox="0 0 25 23" fill="none" xmlns="http://www.w3.org/2000/svg">
<path d="M7.25 0H17.75C21.75 0 25 2.99 25 6.67V16.33C25 18.099 24.2362 19.7955 22.8765 21.0464C21.5169 22.2973 19.6728 23 17.75 23H7.25C3.25 23 0 20.01 0 16.33V6.67C0 4.90101 0.763837 3.20447 2.12348 1.9536C3.48311 0.70273 5.32718 0 7.25 0ZM7 2.3C5.80653 2.3 4.66193 2.73618 3.81802 3.51258C2.97411 4.28898 2.5 5.342 2.5 6.44V16.56C2.5 18.8485 4.5125 20.7 7 20.7H18C19.1935 20.7 20.3381 20.2638 21.182 19.4874C22.0259 18.711 22.5 17.658 22.5 16.56V6.44C22.5 4.1515 20.4875 2.3 18 2.3H7ZM19.0625 4.025C19.4769 4.025 19.8743 4.17645 20.1674 4.44603C20.4604 4.71562 20.625 5.08125 20.625 5.4625C20.625 5.84375 20.4604 6.20938 20.1674 6.47897C19.8743 6.74855 19.4769 6.9 19.0625 6.9C18.6481 6.9 18.2507 6.74855 17.9576 6.47897C17.6646 6.20938 17.5 5.84375 17.5 5.4625C17.5 5.08125 17.6646 4.71562 17.9576 4.44603C18.2507 4.17645 18.6481 4.025 19.0625 4.025ZM12.5 5.75C14.1576 5.75 15.7473 6.3558 16.9194 7.43414C18.0915 8.51247 18.75 9.975 18.75 11.5C18.75 13.025 18.0915 14.4875 16.9194 15.5659C15.7473 16.6442 14.1576 17.25 12.5 17.25C10.8424 17.25 9.25269 16.6442 8.08058 15.5659C6.90848 14.4875 6.25 13.025 6.25 11.5C6.25 9.975 6.90848 8.51247 8.08058 7.43414C9.25269 6.3558 10.8424 5.75 12.5 5.75ZM12.5 8.05C11.5054 8.05 10.5516 8.41348 9.84835 9.06048C9.14509 9.70748 8.75 10.585 8.75 11.5C8.75 12.415 9.14509 13.2925 9.84835 13.9395C10.5516 14.5865 11.5054 14.95 12.5 14.95C13.4946 14.95 14.4484 14.5865 15.1517 13.9395C15.8549 13.2925 16.25 12.415 16.25 11.5C16.25 10.585 15.8549 9.70748 15.1517 9.06048C14.4484 8.41348 13.4946 8.05 12.5 8.05Z" fill="white"/>
</svg>
