<svg width="26" height="19" viewBox="0 0 26 19" fill="none" xmlns="http://www.w3.org/2000/svg">
<path d="M26 2.23529C25.043 2.62647 24.0115 2.88353 22.9426 3.00647C24.0363 2.41412 24.8815 1.47529 25.2792 0.346471C24.2476 0.905294 23.1042 1.29647 21.8987 1.52C20.9168 0.558824 19.5373 0 17.9713 0C15.0507 0 12.6644 2.14588 12.6644 4.79471C12.6644 5.17471 12.7142 5.54353 12.8011 5.89C8.37667 5.68882 4.4369 3.77765 1.81453 0.882941C1.35468 1.58706 1.09369 2.41412 1.09369 3.28588C1.09369 4.95118 2.02581 6.42647 3.4675 7.26471C2.58509 7.26471 1.76482 7.04118 1.04398 6.70588V6.73941C1.04398 9.06412 2.88337 11.0088 5.31931 11.4447C4.53723 11.6372 3.71618 11.664 2.92065 11.5229C3.25821 12.4757 3.91931 13.3094 4.81102 13.9068C5.70272 14.5042 6.78019 14.8353 7.89197 14.8535C6.00738 16.1952 3.67131 16.9204 1.26769 16.91C0.845124 16.91 0.422562 16.8876 0 16.8429C2.36138 18.2065 5.17017 19 8.17782 19C17.9713 19 23.3528 11.6906 23.3528 5.35353C23.3528 5.14118 23.3528 4.94 23.3403 4.72765C24.3843 4.05706 25.2792 3.20765 26 2.23529Z" fill="white"/>
</svg>
