<svg width="25" height="22" viewBox="0 0 25 22" fill="none" xmlns="http://www.w3.org/2000/svg">
<path d="M12.5 0C10.8585 0 9.23303 0.291587 7.71646 0.858113C6.19989 1.42464 4.8219 2.25501 3.66117 3.30181C1.31696 5.41593 0 8.28329 0 11.2731C0 16.2558 3.5875 20.4832 8.55 21.9825C9.175 22.0727 9.375 21.7233 9.375 21.4189V19.5137C5.9125 20.1901 5.175 18.0031 5.175 18.0031C4.6 16.6955 3.7875 16.346 3.7875 16.346C2.65 15.6471 3.875 15.6696 3.875 15.6696C5.125 15.7485 5.7875 16.8307 5.7875 16.8307C6.875 18.5442 8.7125 18.037 9.425 17.7664C9.5375 17.0336 9.8625 16.5376 10.2125 16.2558C7.4375 15.974 4.525 15.0045 4.525 10.7094C4.525 9.45813 5 8.45482 5.8125 7.65443C5.6875 7.37261 5.25 6.2002 5.9375 4.67834C5.9375 4.67834 6.9875 4.37396 9.375 5.82819C10.3625 5.58018 11.4375 5.45618 12.5 5.45618C13.5625 5.45618 14.6375 5.58018 15.625 5.82819C18.0125 4.37396 19.0625 4.67834 19.0625 4.67834C19.75 6.2002 19.3125 7.37261 19.1875 7.65443C20 8.45482 20.475 9.45813 20.475 10.7094C20.475 15.0158 17.55 15.9627 14.7625 16.2445C15.2125 16.594 15.625 17.2817 15.625 18.3301V21.4189C15.625 21.7233 15.825 22.084 16.4625 21.9825C21.425 20.4719 25 16.2558 25 11.2731C25 9.79269 24.6767 8.32678 24.0485 6.95907C23.4203 5.59135 22.4996 4.34862 21.3388 3.30181C20.1781 2.25501 18.8001 1.42464 17.2835 0.858113C15.767 0.291587 14.1415 0 12.5 0Z" fill="white"/>
</svg>
